<svg width="209" height="59" viewBox="0 0 209 59" fill="none" xmlns="http://www.w3.org/2000/svg">
<path d="M5.088 46C3.76533 46 2.74133 45.6373 2.016 44.912C1.29067 44.144 0.928 43.0987 0.928 41.776V4.848C0.928 3.48267 1.26933 2.45867 1.952 1.776C2.67733 1.05067 3.70133 0.688 5.024 0.688C6.34667 0.688 7.34933 1.05067 8.032 1.776C8.75733 2.45867 9.12 3.48267 9.12 4.848V39.024H27.68C28.832 39.024 29.7067 39.3227 30.304 39.92C30.944 40.5173 31.264 41.3707 31.264 42.48C31.264 43.5893 30.944 44.464 30.304 45.104C29.7067 45.7013 28.832 46 27.68 46H5.088ZM51.209 46.64C47.6677 46.64 44.617 45.9787 42.057 44.656C39.497 43.3333 37.513 41.456 36.105 39.024C34.7397 36.592 34.057 33.712 34.057 30.384C34.057 27.1413 34.7183 24.304 36.041 21.872C37.4063 19.44 39.2623 17.5413 41.609 16.176C43.9983 14.768 46.7077 14.064 49.737 14.064C51.9557 14.064 53.9397 14.4267 55.689 15.152C57.481 15.8773 58.9957 16.9227 60.233 18.288C61.513 19.6533 62.473 21.3173 63.113 23.28C63.7957 25.2 64.137 27.376 64.137 29.808C64.137 30.576 63.8597 31.1733 63.305 31.6C62.793 31.984 62.0463 32.176 61.065 32.176H40.521V27.568H58.505L57.481 28.528C57.481 26.5653 57.1823 24.9227 56.585 23.6C56.0303 22.2773 55.1983 21.2747 54.089 20.592C53.0223 19.8667 51.6783 19.504 50.057 19.504C48.265 19.504 46.729 19.9307 45.449 20.784C44.2117 21.5947 43.2517 22.768 42.569 24.304C41.929 25.7973 41.609 27.5893 41.609 29.68V30.128C41.609 33.6267 42.4197 36.2507 44.041 38C45.705 39.7067 48.137 40.56 51.337 40.56C52.4463 40.56 53.6837 40.432 55.049 40.176C56.457 39.8773 57.7797 39.3867 59.017 38.704C59.913 38.192 60.7023 37.9787 61.385 38.064C62.0677 38.1067 62.601 38.3413 62.985 38.768C63.4117 39.1947 63.6677 39.728 63.753 40.368C63.8383 40.9653 63.7103 41.584 63.369 42.224C63.0703 42.864 62.537 43.4187 61.769 43.888C60.2757 44.8267 58.5477 45.5307 56.585 46C54.665 46.4267 52.873 46.64 51.209 46.64ZM84.6835 46.64C81.9102 46.64 79.5848 46.1707 77.7075 45.232C75.8728 44.2933 74.5075 42.928 73.6115 41.136C72.7155 39.3013 72.2675 37.04 72.2675 34.352V20.72H68.9395C67.9155 20.72 67.1262 20.464 66.5715 19.952C66.0168 19.3973 65.7395 18.6507 65.7395 17.712C65.7395 16.7307 66.0168 15.984 66.5715 15.472C67.1262 14.96 67.9155 14.704 68.9395 14.704H72.2675V8.88C72.2675 7.55733 72.6088 6.55467 73.2915 5.872C74.0168 5.18933 75.0195 4.848 76.2995 4.848C77.5795 4.848 78.5608 5.18933 79.2435 5.872C79.9262 6.55467 80.2675 7.55733 80.2675 8.88V14.704H87.0515C88.0755 14.704 88.8648 14.96 89.4195 15.472C89.9742 15.984 90.2515 16.7307 90.2515 17.712C90.2515 18.6507 89.9742 19.3973 89.4195 19.952C88.8648 20.464 88.0755 20.72 87.0515 20.72H80.2675V33.904C80.2675 35.952 80.7155 37.488 81.6115 38.512C82.5075 39.536 83.9582 40.048 85.9635 40.048C86.6888 40.048 87.3288 39.984 87.8835 39.856C88.4382 39.728 88.9288 39.6427 89.3555 39.6C89.8675 39.5573 90.2942 39.728 90.6355 40.112C90.9768 40.4533 91.1475 41.1787 91.1475 42.288C91.1475 43.1413 90.9982 43.9093 90.6995 44.592C90.4435 45.232 89.9528 45.68 89.2275 45.936C88.6728 46.1067 87.9475 46.256 87.0515 46.384C86.1555 46.5547 85.3662 46.64 84.6835 46.64ZM107.434 46.64C104.66 46.64 102.335 46.1707 100.458 45.232C98.6228 44.2933 97.2575 42.928 96.3615 41.136C95.4655 39.3013 95.0175 37.04 95.0175 34.352V20.72H91.6895C90.6655 20.72 89.8762 20.464 89.3215 19.952C88.7668 19.3973 88.4895 18.6507 88.4895 17.712C88.4895 16.7307 88.7668 15.984 89.3215 15.472C89.8762 14.96 90.6655 14.704 91.6895 14.704H95.0175V8.88C95.0175 7.55733 95.3588 6.55467 96.0415 5.872C96.7668 5.18933 97.7695 4.848 99.0495 4.848C100.33 4.848 101.311 5.18933 101.994 5.872C102.676 6.55467 103.018 7.55733 103.018 8.88V14.704H109.802C110.826 14.704 111.615 14.96 112.17 15.472C112.724 15.984 113.002 16.7307 113.002 17.712C113.002 18.6507 112.724 19.3973 112.17 19.952C111.615 20.464 110.826 20.72 109.802 20.72H103.018V33.904C103.018 35.952 103.466 37.488 104.362 38.512C105.258 39.536 106.708 40.048 108.714 40.048C109.439 40.048 110.079 39.984 110.634 39.856C111.188 39.728 111.679 39.6427 112.106 39.6C112.618 39.5573 113.044 39.728 113.386 40.112C113.727 40.4533 113.898 41.1787 113.898 42.288C113.898 43.1413 113.748 43.9093 113.45 44.592C113.194 45.232 112.703 45.68 111.978 45.936C111.423 46.1067 110.698 46.256 109.802 46.384C108.906 46.5547 108.116 46.64 107.434 46.64ZM126.096 58.032C125.157 58.032 124.389 57.776 123.792 57.264C123.195 56.7947 122.832 56.1547 122.704 55.344C122.619 54.5333 122.768 53.68 123.152 52.784L127.504 43.12V46.448L115.856 19.504C115.472 18.5653 115.344 17.6907 115.472 16.88C115.6 16.0693 115.984 15.4293 116.624 14.96C117.307 14.448 118.224 14.192 119.376 14.192C120.357 14.192 121.147 14.4267 121.744 14.896C122.341 15.3227 122.875 16.1547 123.344 17.392L131.984 38.96H130.064L138.896 17.328C139.365 16.1333 139.92 15.3227 140.56 14.896C141.2 14.4267 142.053 14.192 143.12 14.192C144.059 14.192 144.805 14.448 145.36 14.96C145.915 15.4293 146.256 16.0693 146.384 16.88C146.512 17.648 146.363 18.5013 145.936 19.44L130.384 54.96C129.829 56.1547 129.232 56.9653 128.592 57.392C127.952 57.8187 127.12 58.032 126.096 58.032Z" fill="url(#paint0_linear_17_89)"/>
<path d="M153.064 46.512C152.04 46.512 151.208 46.2773 150.568 45.808C149.97 45.3387 149.608 44.72 149.48 43.952C149.352 43.1413 149.501 42.2453 149.928 41.264L166.824 3.824C167.378 2.58666 168.04 1.712 168.808 1.2C169.618 0.64533 170.536 0.367996 171.56 0.367996C172.541 0.367996 173.416 0.64533 174.184 1.2C174.994 1.712 175.677 2.58666 176.232 3.824L193.192 41.264C193.661 42.2453 193.832 43.1413 193.704 43.952C193.576 44.7627 193.213 45.4027 192.616 45.872C192.018 46.2987 191.229 46.512 190.248 46.512C189.053 46.512 188.114 46.2347 187.432 45.68C186.792 45.0827 186.216 44.1867 185.704 42.992L181.544 33.328L185 35.568H157.992L161.448 33.328L157.352 42.992C156.797 44.2293 156.221 45.1253 155.624 45.68C155.026 46.2347 154.173 46.512 153.064 46.512ZM171.432 9.776L162.472 31.088L160.808 29.04H182.184L180.583 31.088L171.56 9.776H171.432ZM204.337 46.512C203.014 46.512 201.99 46.1493 201.265 45.424C200.582 44.656 200.241 43.6107 200.241 42.288V4.592C200.241 3.22667 200.582 2.18133 201.265 1.456C201.99 0.730663 203.014 0.367996 204.337 0.367996C205.659 0.367996 206.662 0.730663 207.345 1.456C208.07 2.18133 208.433 3.22667 208.433 4.592V42.288C208.433 43.6107 208.091 44.656 207.409 45.424C206.726 46.1493 205.702 46.512 204.337 46.512Z" fill="url(#paint1_linear_17_89)"/>
<defs>
<linearGradient id="paint0_linear_17_89" x1="105" y1="-19" x2="105" y2="68" gradientUnits="userSpaceOnUse">
<stop offset="0.9999" stop-color="#6E3FF2"/>
<stop offset="1" stop-color="#F00088"/>
</linearGradient>
<linearGradient id="paint1_linear_17_89" x1="105" y1="-19" x2="105" y2="68" gradientUnits="userSpaceOnUse">
<stop stop-color="#F11893"/>
<stop offset="0.0001" stop-color="#F00088"/>
<stop offset="0.0002" stop-color="white"/>
</linearGradient>
</defs>
</svg>
