<svg width="99" height="80" viewBox="0 0 99 80" fill="none" xmlns="http://www.w3.org/2000/svg">
<path fill-rule="evenodd" clip-rule="evenodd" d="M37.1123 66.6365C39.7678 74.4581 50.8806 74.7477 53.3752 66.6365C56.3123 69.2839 65.011 69.815 68.2539 71.6175C69.2758 72.1888 70.2012 72.9211 70.9416 73.8948C71.6658 74.8443 72.736 76.9687 73.1625 79.0046H17.325C17.7434 76.9687 18.8217 74.8443 19.5459 73.8948C20.2943 72.9131 21.2117 72.1888 22.2336 71.6175C25.4765 69.8069 34.1672 69.2758 37.1123 66.6365ZM76.3974 12.4647L89.538 12.6417C90.8255 12.6578 92.0325 12.9153 93.1591 13.3901C94.2695 13.8648 95.2915 14.573 96.2008 15.5064C97.1101 16.4398 97.786 17.4779 98.2367 18.5964C98.6793 19.723 98.9046 20.9381 98.8804 22.2417L98.6873 36.5169C98.6712 37.8205 98.4137 39.0275 97.9389 40.138C97.4642 41.2485 96.756 42.2704 95.8226 43.1717C94.8892 44.0729 93.8592 44.7408 92.7326 45.2075C92.0245 45.4892 91.2761 45.6823 90.4955 45.7789C90.4392 51.1623 89.4012 56.6583 87.2526 62.0256C86.794 63.1682 85.4984 63.7235 84.3558 63.2648C83.2131 62.8061 82.6579 61.5106 83.1165 60.3679C85.0478 55.5398 85.9812 50.6231 86.0456 45.8111L84.3477 45.7869C83.5108 46.825 82.5935 47.7986 81.6279 48.6838C80.4771 49.7299 79.246 50.6714 77.9343 51.5002C76.6227 52.3451 75.2145 53.0774 73.7177 53.697C72.8004 54.0833 71.8348 54.4293 70.845 54.7351C70.3702 55.8456 69.0988 56.3767 67.9722 55.926C66.8296 55.4674 66.2743 54.1718 66.733 53.0291C67.7228 50.5587 68.2458 48.0401 68.3665 45.5455L67.8113 45.5375C66.5238 45.5214 65.3168 45.2639 64.1902 44.7891C63.0797 44.3143 62.0578 43.6062 61.1565 42.6728C60.2553 41.7393 59.5713 40.7093 59.1206 39.5827C58.6781 38.4401 58.4528 37.225 58.4769 35.9375L58.6217 25.5328C57.1652 24.4867 55.572 23.6096 53.858 22.9256C51.2427 21.8795 48.3458 21.2921 45.2478 21.2921C38.8585 21.2921 33.0728 23.8832 28.8884 28.0676C24.704 32.252 22.1129 38.0377 22.1129 44.427C22.1129 45.9076 22.2497 47.34 22.4992 48.7079C22.7647 50.1322 23.159 51.5163 23.674 52.828C24.1166 53.9706 23.5453 55.2581 22.4026 55.7007C21.2599 56.1433 19.9724 55.572 19.5299 54.4293C18.9183 52.8521 18.4435 51.2105 18.1297 49.5287C17.8159 47.855 17.6549 46.149 17.6549 44.427C17.6549 36.8066 20.7449 29.9104 25.7421 24.9132C30.7392 19.9161 37.6354 16.8261 45.2558 16.8261C48.9252 16.8261 52.3773 17.5262 55.5237 18.7895C56.6502 19.2402 57.7366 19.7632 58.7827 20.3506C58.8953 19.5379 59.1126 18.7654 59.4264 18.0251C59.9012 16.9146 60.6093 15.8926 61.5428 14.9914C62.4682 14.0821 63.5062 13.4062 64.6328 12.9555C65.7593 12.5129 66.9744 12.2876 68.278 12.3118L69.3965 12.3279C66.6686 10.3081 63.6671 8.61019 60.4323 7.31464C55.7973 5.49604 50.6955 4.46604 45.2397 4.46604C33.9821 4.46604 23.7867 9.02863 16.4076 16.4076C9.02863 23.7867 4.46603 33.9821 4.46603 45.2397C4.46603 47.8389 4.70744 50.3576 5.15807 52.7877C5.62479 55.2984 6.32487 57.7285 7.22612 60.046C7.6687 61.1887 7.09737 62.4762 5.95471 62.9188C4.81205 63.3614 3.52455 62.79 3.08197 61.6474C2.0761 59.0643 1.3036 56.3767 0.788597 53.6085C0.265548 50.8726 0 48.0722 0 45.2397C0 32.7509 5.06151 21.437 13.2533 13.2533C21.437 5.06151 32.7509 0 45.2397 0C51.2588 0 56.9238 1.15071 62.0739 3.21072C67.4894 5.37534 72.3176 8.55387 76.3974 12.4647ZM82.8751 15.2328L79.0046 15.1765L72.7038 15.088L68.2458 15.0236C67.2883 15.0075 66.4111 15.1604 65.6145 15.4823C64.8179 15.8041 64.0775 16.2869 63.4096 16.9387C62.7418 17.5905 62.2348 18.3148 61.8968 19.1034C61.5589 19.892 61.3818 20.7691 61.3657 21.7186L61.3577 22.0324L61.2933 26.5709L61.1646 35.9938C61.1485 36.9514 61.3094 37.8285 61.6232 38.6252C61.9451 39.4218 62.4279 40.1621 63.0797 40.83C63.7476 41.4979 64.4799 42.021 65.2604 42.3428C66.049 42.6808 66.902 42.8578 67.8596 42.8739L74.1362 42.9625C74.8684 42.9705 75.4639 43.5901 75.4559 44.3224C75.4559 44.4914 75.4156 44.6362 75.3754 44.7811C75.1259 45.6582 74.8604 46.5353 74.5466 47.3802C74.2247 48.2734 73.8787 49.1183 73.5005 49.9311C73.3073 50.3495 73.082 50.7519 72.8406 51.1703C74.1362 50.6231 75.3513 49.9713 76.4859 49.2551C77.6688 48.4987 78.7873 47.6538 79.8092 46.7284C80.8473 45.7869 81.7807 44.7569 82.6418 43.6464C82.9073 43.3004 83.3097 43.1234 83.712 43.1314L86.0295 43.1636L89.1115 43.2039H89.1356H89.1598H89.1839H89.208H89.2241H89.2483H89.2563H89.2724H89.2966H89.3046H89.3207H89.3448H89.3529H89.3851H89.3931H89.4092H89.4333H89.4414H89.4494H89.4736H89.4816H89.4897H89.5138H89.5299H89.538H89.5621H89.5782H89.5862H89.6104H89.6265H89.6345H89.6587H89.6748H89.6828H89.7069H89.723H89.7311H89.7552H89.7713H89.7955H89.8196H89.8438H89.8679H89.892H89.9162H89.9323H89.9564H89.9645H89.9805H90.0047H90.0127H90.0288H90.053H90.061H90.0771H90.1012H90.1093H90.1254H90.1495H90.1576H90.1656H90.1898H90.1978H90.2059H90.23H90.238H90.2461H90.2702H90.2863H90.2944H90.3185H90.3346H90.3427H90.3668H90.3829H90.3909H90.407H90.4231H90.4473H90.4634H90.4875H90.5036H90.5197H90.5438C90.9945 43.1314 91.4209 43.0027 91.8313 42.8418C92.628 42.5199 93.3683 42.0371 94.0523 41.3853C94.7202 40.7335 95.2271 40.0092 95.5651 39.2206C95.9031 38.432 96.0801 37.5549 96.0962 36.6054L96.2893 22.3302C96.3054 21.3726 96.1525 20.4955 95.8306 19.6988C95.5088 18.9022 95.026 18.1619 94.3742 17.494C93.7224 16.8261 92.9981 16.3191 92.2095 15.9812C91.4209 15.6432 90.5438 15.4662 89.5943 15.4501L82.9717 15.3616V15.2328H82.8751ZM35.0765 50.4219C34.5212 50.4461 34.1028 50.5587 33.8051 50.7519C33.6441 50.8645 33.5154 51.0013 33.443 51.1703C33.3544 51.3554 33.3142 51.5807 33.3223 51.8382C33.3464 52.6026 33.7407 53.6005 34.5212 54.7592L34.5293 54.7753L37.0399 58.7746C38.0458 60.376 39.108 62.0175 40.4196 63.2165C41.683 64.3672 43.2119 65.1558 45.2397 65.1558C47.4365 65.1639 49.0379 64.3511 50.3415 63.128C51.6933 61.8566 52.7716 60.1185 53.8177 58.3884L56.6502 53.7212C57.1733 52.5141 57.3745 51.7094 57.2457 51.2347C57.1733 50.953 56.8675 50.8162 56.3364 50.7921C56.2238 50.784 56.1111 50.784 55.9904 50.784C55.8616 50.7921 55.7329 50.8001 55.5961 50.8082C55.5156 50.8162 55.4432 50.8082 55.3788 50.7921C55.1294 50.8082 54.8638 50.784 54.6063 50.7519L55.58 46.4548C48.3861 47.5894 42.9946 42.2463 35.3903 45.3846L35.9375 50.4461C35.6317 50.4702 35.342 50.4622 35.0765 50.4219ZM57.3181 49.5207C58.0102 49.738 58.4608 50.1725 58.6459 50.8967C58.847 51.6853 58.6298 52.8038 57.9538 54.3327C57.9377 54.3569 57.9217 54.3891 57.9136 54.4132L55.0489 59.1367C53.9465 60.9553 52.8199 62.782 51.3312 64.1822C49.7782 65.6306 47.8711 66.5962 45.2639 66.5882C42.8257 66.5882 40.991 65.6547 39.4862 64.2787C38.0297 62.951 36.9192 61.2289 35.857 59.5471L33.3383 55.5478C32.421 54.1718 31.9382 52.9245 31.914 51.8945C31.8979 51.4117 31.9784 50.9691 32.1554 50.5829C32.3405 50.1805 32.6302 49.8426 33.0165 49.577C33.2015 49.4563 33.4027 49.3517 33.628 49.2712C33.4671 47.1066 33.4027 44.3707 33.5073 42.0853C33.5637 41.5462 33.6683 40.999 33.8131 40.4599C34.4569 38.1665 36.0662 36.3157 38.0619 35.0443C39.1643 34.3442 40.3633 33.8131 41.6267 33.4591C42.4233 33.2337 40.9427 30.6748 41.7715 30.5944C45.7628 30.184 52.2244 33.8292 55.0087 36.8468C56.4008 38.3596 57.2779 40.3553 57.471 43.0107L57.3181 49.5207Z" fill="white"/>
</svg>
