<svg width="90" height="90" viewBox="0 0 90 90" fill="none" xmlns="http://www.w3.org/2000/svg">
<path fill-rule="evenodd" clip-rule="evenodd" d="M81.561 0H8.439C3.79855 0 0 3.79842 0 8.43901V81.5611C0 86.2016 3.79855 90 8.439 90H81.561C86.2014 90 90 86.2016 90 81.5611V8.43887C90 3.79842 86.2014 0 81.561 0ZM51.1619 24.44H61.4478V12.1045H51.1619C43.2411 12.1045 36.7786 18.5653 36.7786 26.4961V32.6613H28.5539V45H36.7769V77.8954H49.114V45H59.3898L61.4476 32.6613H49.1139V26.4961C49.1139 25.3799 50.0558 24.4383 51.1619 24.4383V24.44Z" fill="white"/>
</svg>
