<svg width="110" height="110" viewBox="0 0 110 110" fill="none" xmlns="http://www.w3.org/2000/svg">
<path fill-rule="evenodd" clip-rule="evenodd" d="M91.2692 44.271L102.038 54.3923L85.6306 71.2137L72.4482 74.6648C71.9752 74.755 71.7882 74.5703 71.8652 74.1365L74.8528 61.0925L91.2692 44.271ZM65.054 74.6412C66.6644 74.5982 68.0108 75.8416 68.0548 77.4136C68.0988 78.9856 66.825 80.2977 65.2146 80.3407C62.26 80.4201 60.203 81.9212 59.3406 83.6951C58.9908 84.4145 58.8434 85.1747 58.9226 85.8684C58.9908 86.4568 59.2416 87.0087 59.6926 87.4447C60.9972 88.7117 63.8286 89.2657 68.6136 88.134C69.3704 87.9536 70.8972 87.4554 72.8112 86.8305C81.895 83.8647 98.5842 78.4165 101.185 85.9865C101.693 87.4769 100.87 89.0961 99.341 89.5943C97.8142 90.0925 96.1554 89.2872 95.6472 87.7968C94.9036 85.63 81.7982 89.9079 74.6636 92.2358C72.6198 92.9036 70.9874 93.4384 69.9864 93.6746C62.898 95.3518 58.1812 94.0246 55.572 91.4884C54.1244 90.0818 53.3192 88.3359 53.108 86.4933C52.9056 84.756 53.2378 82.9349 54.0518 81.262C55.7612 77.7443 59.631 74.7872 65.054 74.6412ZM22.7854 48.5016C21.23 48.5016 19.9694 47.2711 19.9694 45.7528C19.9694 44.2367 21.23 43.0061 22.7854 43.0061H58.2428C59.7982 43.0061 61.0588 44.2367 61.0588 45.7528C61.0588 47.2711 59.7982 48.5016 58.2428 48.5016H22.7854ZM22.7854 66.2594C21.23 66.2594 19.9694 65.031 19.9694 63.5128C19.9694 61.9945 21.23 60.7639 22.7854 60.7639H55.2112C56.7666 60.7639 58.025 61.9945 58.025 63.5128C58.025 65.031 56.7666 66.2594 55.2112 66.2594H22.7854ZM22.7854 84.0194C21.23 84.0194 19.9694 82.7888 19.9694 81.2706C19.9694 79.7544 21.23 78.5239 22.7854 78.5239H42.0376C43.5908 78.5239 44.8514 79.7544 44.8514 81.2706C44.8514 82.7888 43.5908 84.0194 42.0376 84.0194H22.7854ZM54.1222 7.88782V17.1737C54.3422 19.9826 55.3454 22.1903 57.1054 23.6592C58.9336 25.1818 61.6616 26.0365 65.274 26.0987L73.4734 26.0902L54.1222 7.88782ZM75.3984 31.5835L65.23 31.5728C60.2228 31.4955 56.2826 30.1812 53.4556 27.8254C50.512 25.3686 48.8532 21.881 48.5166 17.5645L48.4924 17.1866V5.49549H13.9942C9.3874 5.49549 5.6298 9.16345 5.6298 13.6603V96.3375C5.6298 100.815 9.405 104.502 13.9942 104.502H67.0384C70.4924 104.502 73.645 102.359 74.866 99.2087C75.4094 97.7935 77.033 97.0784 78.4828 97.6088C79.9326 98.1414 80.6652 99.7241 80.1196 101.139C78.0692 106.42 72.8354 110 67.0384 110H13.9942C6.3118 110 0 103.834 0 96.3375V13.6603C0 6.15693 6.3074 0 13.9942 0H52.701C53.5348 0 54.2872 0.35434 54.7998 0.919136L80.1592 24.7694C80.7312 25.3063 81.0194 26.0257 81.0194 26.7451L81.0282 42.6368C81.0282 44.1551 79.7676 45.3856 78.2144 45.3856C76.659 45.3856 75.3984 44.1551 75.3984 42.6368V31.5835ZM101.99 36.8449C101.49 36.3768 100.907 36.1577 100.239 36.1663C99.572 36.177 99.0022 36.4326 98.5292 36.9136L94.688 40.8178L105.468 50.9756L109.349 47.0327C109.813 46.5753 110.007 45.9804 110 45.3254C109.989 44.6812 109.751 44.0971 109.283 43.6547L101.99 36.8449ZM82.2096 70.6038L74.1246 72.7191C73.832 72.775 73.7176 72.6633 73.7682 72.397L75.5986 64.3954L82.2096 70.6038Z" fill="white"/>
</svg>
