<svg width="110" height="110" viewBox="0 0 110 110" fill="none" xmlns="http://www.w3.org/2000/svg">
<path fill-rule="evenodd" clip-rule="evenodd" d="M81.0333 60.1045C89.0177 60.1045 96.2512 62.8995 101.494 67.4132C106.755 71.9247 110 78.1657 110 85.0512C110 91.9388 106.755 98.1798 101.514 102.691L101.185 102.953C95.9669 107.312 88.8605 110 81.0333 110C73.0365 110 65.793 107.205 60.5549 102.691C55.3143 98.1798 52.0692 91.9388 52.0692 85.0512C52.0692 78.1635 55.3143 71.9247 60.5549 67.4132C65.793 62.8995 73.0365 60.1045 81.0333 60.1045ZM60.6397 8.18093V19.8207C60.8866 22.5985 62.0116 24.7813 63.9871 26.2335C66.0324 27.7395 69.0905 28.5838 73.1388 28.6461L82.5973 28.6376L60.6397 8.18093ZM83.3905 34.0664L73.0889 34.0578C67.4791 33.9827 63.0592 32.6829 59.8939 30.3541C56.5939 27.9243 54.7356 24.4783 54.359 20.2074L54.3315 19.8336V5.43319H15.6819C13.1027 5.43319 10.7556 6.34194 9.05941 7.80282C7.36327 9.2637 6.30816 11.2853 6.30816 13.5067V85.7966C6.30816 88.0094 7.36825 90.0311 9.06689 91.4941C10.763 92.955 13.1127 93.868 15.6819 93.868H45.4667C46.1002 95.7564 46.9308 97.5739 47.941 99.3012H15.6819C11.3717 99.3012 7.44558 97.7802 4.60453 95.3353C1.76599 92.8884 0 89.509 0 85.7966V13.5067C0 9.79864 1.76599 6.42143 4.60204 3.9766C7.45556 1.52103 11.3766 0 15.6819 0H59.0533C60.0785 0 60.9889 0.421077 61.5651 1.07418L88.8506 26.4978C89.4093 27.0198 89.6837 27.6772 89.6837 28.3346L89.6912 54.0547C87.6508 53.6315 85.5456 53.3565 83.3905 53.2405V34.0664ZM26.0807 45.7728C24.3397 45.7728 22.9279 44.5569 22.9279 43.0573C22.9279 41.5556 24.3397 40.3396 26.0807 40.3396H63.6179C65.359 40.3396 66.7732 41.5556 66.7732 43.0573C66.7732 44.5569 65.359 45.7728 63.6179 45.7728H26.0807ZM26.0807 61.3054C24.3397 61.3054 22.9279 60.0894 22.9279 58.5877C22.9279 57.0882 24.3397 55.8722 26.0807 55.8722H61.6299C62.5553 55.8722 63.3884 56.216 63.9671 56.7638C61.2179 57.9981 58.6588 59.5239 56.3494 61.3054H26.0807ZM26.0807 76.838C24.3397 76.838 22.9279 75.622 22.9279 74.1203C22.9279 72.6208 24.3397 71.4048 26.0807 71.4048H47.5819C46.629 73.1342 45.8483 74.9518 45.2646 76.838H26.0807ZM89.8184 72.2534C89.4367 72.0278 89.0002 71.9247 88.5587 72.0021C88.1197 72.0773 87.7406 72.2771 87.4787 72.6036L85.9821 74.4233C84.9719 74.0344 83.6823 73.7788 82.5898 73.6413L82.1184 71.2695C82.0286 70.8677 81.7941 70.567 81.4449 70.3349C81.0633 70.1115 80.6542 70.0342 80.1878 70.1115L76.7306 70.64C76.2916 70.7152 75.9374 70.8935 75.6456 71.2201C75.3862 71.5466 75.2664 71.9032 75.3537 72.305L75.7952 74.4748C74.7302 74.8594 73.6751 75.4137 72.7796 76.0388L70.4324 74.6488C70.0533 74.4233 69.6467 74.3223 69.2052 74.3975C68.7637 74.4748 68.3846 74.6768 68.1252 75.0033L66.1322 77.4503C65.8653 77.7768 65.7506 78.1549 65.8404 78.5331C65.9252 78.937 66.1571 79.2399 66.5438 79.4654L68.649 80.7523C68.205 81.616 67.9007 82.7417 67.7435 83.6762L64.9923 84.0823C64.5209 84.1596 64.1717 84.3594 63.9048 84.6623C63.6404 84.991 63.5556 85.3412 63.6404 85.7451L64.2565 88.7206C64.3438 89.1008 64.5508 89.4016 64.9299 89.6551C65.3116 89.8828 65.7231 89.9838 66.1921 89.9086L68.7088 89.5283C69.1728 90.4779 69.8063 91.333 70.5247 92.1536L68.9109 94.143C68.649 94.4717 68.5317 94.8262 68.6215 95.2021C68.7088 95.5802 68.9458 95.9089 69.3249 96.1324L72.1909 97.8747C72.5726 98.1024 73.0141 98.1776 73.4481 98.1024C73.8896 98.0272 74.2712 97.8511 74.5655 97.5245L76.0546 95.6812C77.0823 96.0722 78.3419 96.3193 79.4544 96.4654L79.9234 98.835C80.0082 99.241 80.2426 99.5418 80.5943 99.7695C80.9785 99.9951 81.3875 100.07 81.8565 99.9951L85.3086 99.4645C85.7501 99.3893 86.0993 99.2131 86.3936 98.8866C86.6555 98.5579 86.7703 98.2055 86.683 97.8038L86.2465 95.6339C87.3614 95.2301 88.3292 94.6865 89.2896 94.0678L91.6068 95.4556C91.9884 95.6812 92.395 95.7822 92.8639 95.7048C93.3329 95.634 93.6846 95.432 93.944 95.1012L95.9669 92.6284C96.2288 92.3019 96.3211 91.9216 96.2288 91.5478C96.144 91.1697 95.9395 90.841 95.5603 90.5853L93.4202 89.3264C93.8642 88.4628 94.1685 87.3392 94.3256 86.4046L97.0794 85.9986C97.5483 85.9212 97.8975 85.7193 98.1669 85.4185C98.4288 85.092 98.5161 84.7375 98.4288 84.3358L97.8127 81.3581C97.7254 80.9779 97.5209 80.6771 97.1417 80.4258C96.7601 80.1959 96.346 80.0949 95.8796 80.1723L93.3603 80.5525C92.8764 79.6072 92.2952 78.7586 91.5444 77.9551L93.1583 75.9357C93.4202 75.607 93.5374 75.2547 93.4476 74.8766C93.3603 74.4985 93.1234 74.1698 92.7442 73.942L89.9057 72.2298L89.8184 72.2534ZM81.0383 78.6942C85.1141 78.6942 88.4215 81.5408 88.4215 85.0533C88.4215 88.5637 85.1141 91.4103 81.0383 91.4103C76.9626 91.4103 73.6551 88.5637 73.6551 85.0533C73.6551 81.5408 76.9626 78.6942 81.0383 78.6942Z" fill="white"/>
</svg>
