<svg width="90" height="90" viewBox="0 0 90 90" fill="none" xmlns="http://www.w3.org/2000/svg">
<path fill-rule="evenodd" clip-rule="evenodd" d="M18.457 0H71.543C81.7256 0.0272461 89.9728 8.27437 90 18.4563V71.543C89.9728 81.7253 81.7256 89.9726 71.5437 89.9996L18.457 90C8.27473 89.9726 0.0274219 81.7253 0.000351563 71.5435L0 18.457C0.0274219 8.27437 8.27473 0.0272461 18.4565 0H18.457ZM64.845 26.9617C61.0874 25.243 57.1211 24.0234 53.0471 23.3339C52.4918 24.331 51.9889 25.3564 51.5405 26.4059C49.3734 26.0789 47.1849 25.9144 44.9933 25.9137C42.8054 25.9137 40.6065 26.0798 38.4455 26.4016C38.0039 25.3598 37.4913 24.3267 36.9352 23.3334C32.8609 24.0295 28.8942 25.2515 25.1344 26.9687C17.6672 38.0152 15.6437 48.7853 16.6554 59.4026C21.0279 62.6321 25.9215 65.0883 31.1237 66.6645C32.2903 65.0897 33.3355 63.4131 34.2227 61.6685C32.5298 61.0376 30.8962 60.258 29.3409 59.3388C29.7503 59.0419 30.1505 58.7363 30.5371 58.4392C35.0594 60.5631 40.0006 61.6709 44.9998 61.6709C49.9994 61.6709 54.9406 60.5631 59.4629 58.439C59.8542 58.7582 60.2545 59.0641 60.6591 59.3385C59.1008 60.2594 57.4643 61.0411 55.7685 61.6744C56.6589 63.4229 57.6956 65.0929 58.8676 66.6666C64.0745 65.0953 68.972 62.6391 73.3454 59.4058L73.3442 59.407C74.5314 47.0946 71.3162 36.4231 64.845 26.9617ZM35.5024 52.8731C32.6828 52.8731 30.3532 50.3144 30.3532 47.1665C30.3532 44.0186 32.6016 41.4373 35.4932 41.4373C38.3848 41.4373 40.6962 44.0186 40.6468 47.1665C40.5972 50.3144 38.3759 52.8731 35.5024 52.8731ZM54.4975 52.8731C51.6734 52.8731 49.353 50.3144 49.353 47.1665C49.353 44.0186 51.6015 41.4373 54.4975 41.4373C57.3935 41.4373 59.687 44.0186 59.6375 47.1665C59.5881 50.3144 57.3711 52.8731 54.4975 52.8731Z" fill="white"/>
</svg>
