<svg width="110" height="110" viewBox="0 0 110 110" fill="none" xmlns="http://www.w3.org/2000/svg">
<path d="M66.5231 103.164C64.945 105.489 62.8535 107.254 60.5118 108.409C56.3331 110.492 51.3511 110.583 47.2078 108.368C45.8046 107.602 44.5098 106.577 43.3855 105.274L66.5231 103.164ZM66.481 38.0213C67.2203 38.0063 67.9728 38.1267 68.7032 38.3675C70.0843 38.8213 71.4166 39.7093 72.4414 40.8898C73.4728 42.0746 74.2098 43.5669 74.3957 45.2248C74.482 46.0011 74.4488 46.8117 74.2673 47.6396C75.042 48.3062 75.6838 49.0609 76.1686 49.8651C76.9034 51.0843 77.2863 52.4369 77.2442 53.8109C77.2044 55.1935 76.7329 56.5783 75.7657 57.8534C75.146 58.6684 74.3227 59.436 73.2824 60.1241C73.3887 62.2615 72.7424 64.1817 71.6911 65.6611C70.5114 67.3211 68.7983 68.4457 67.0277 68.7489C66.6492 70.2563 65.6267 71.5873 64.3032 72.5098C62.6543 73.658 60.4985 74.1956 58.5354 73.6731C57.0702 73.2817 55.7356 72.3335 54.8281 70.6519C53.7237 72.4969 52.1943 73.471 50.5941 73.7935C48.6929 74.1762 46.7253 73.6107 45.2446 72.4926C44.0406 71.5808 43.1398 70.2864 42.8344 68.8242C42.208 68.8027 41.575 68.6844 40.9575 68.4801C39.6118 68.0393 38.3104 67.1792 37.2923 66.0374C36.2742 64.8956 35.5283 63.4571 35.2981 61.8551C35.1764 61.0079 35.1963 60.1198 35.3955 59.2103C34.7116 58.6168 34.1273 57.9437 33.6692 57.2191C32.8967 56.002 32.4696 54.6258 32.4873 53.2045C32.5028 51.7789 32.9698 50.3317 33.9834 48.9921C34.581 48.1986 35.3756 47.4439 36.3826 46.7515C36.3672 46.472 36.3671 46.1967 36.376 45.9258C36.4557 43.8422 37.248 42.008 38.3989 40.6404C39.5875 39.2255 41.1877 38.2923 42.8321 38.0708H42.841C42.9007 37.8106 42.9782 37.5526 43.0734 37.301C43.6046 35.9012 44.7001 34.7056 46.0436 33.9466C47.3915 33.1832 49.0138 32.8478 50.5941 33.166C52.1168 33.4735 53.5754 34.3702 54.6665 36.0495C55.7577 34.3702 57.2162 33.4735 58.739 33.166C60.1754 32.8757 61.6494 33.1273 62.9199 33.7487C64.1726 34.3637 65.2438 35.3485 65.9012 36.5333C66.1623 37.0043 66.3593 37.5031 66.481 38.0213ZM56.2955 38.9159V66.6008C56.4261 66.7685 56.5168 66.9685 56.5545 67.19C56.9639 69.6047 58.044 70.7702 59.2591 71.0949C60.379 71.3916 61.6694 71.0433 62.6963 70.3272C63.7034 69.6262 64.4249 68.5941 64.4337 67.5125C64.4448 66.2825 63.5174 64.887 61.0341 63.6549C60.7098 63.4932 60.4648 63.2131 60.3527 62.8761C60.2407 62.5391 60.2709 62.1727 60.4366 61.8573C60.5186 61.7009 60.6315 61.5617 60.7689 61.4478C60.9063 61.3339 61.0655 61.2474 61.2374 61.1932C61.4092 61.1391 61.5904 61.1184 61.7704 61.1324C61.9505 61.1463 62.126 61.1946 62.2869 61.2745C65.0402 62.6421 66.4678 64.3236 66.9702 66.0138C67.8798 65.7385 68.7629 65.0741 69.4247 64.1409C70.2414 62.9905 70.7084 61.4444 70.4848 59.7113C70.3609 59.1587 70.6088 58.5673 71.14 58.2663C72.2134 57.6578 73.0102 56.974 73.5525 56.2601C74.17 55.4473 74.4688 54.5828 74.4953 53.7378C74.5197 52.8841 74.2673 52.0197 73.7849 51.2176C73.3444 50.4865 72.7158 49.8092 71.9368 49.2415C71.6848 49.0775 71.4954 48.8374 71.3978 48.5584C71.3002 48.2794 71.2998 47.9769 71.3967 47.6976C71.6623 46.9386 71.7331 46.1989 71.6557 45.5086C71.5317 44.4184 71.036 43.4207 70.3366 42.6187C69.635 41.8123 68.7386 41.2081 67.8178 40.9049C67.3354 40.7458 66.8529 40.6748 66.4058 40.7049C66.169 41.4984 65.7329 42.2983 65.0601 43.0767C64.571 43.64 63.7034 43.7132 63.1235 43.2379C62.845 43.0102 62.6709 42.6844 62.6394 42.3321C62.6078 41.9797 62.7214 41.6296 62.9553 41.3586C64.0287 40.1222 64.0354 38.8213 63.4732 37.802C63.0836 37.1032 62.4374 36.5118 61.6782 36.1398C60.9346 35.7764 60.0957 35.6259 59.3011 35.785C58.1348 36.0216 57.0082 36.9591 56.2955 38.9159ZM63.3249 47.9922C63.0306 47.7833 62.8334 47.4696 62.7766 47.1198C62.7198 46.77 62.8079 46.4126 63.0217 46.1258C63.2367 45.8398 63.5596 45.6483 63.9196 45.5931C64.2797 45.5379 64.6476 45.6235 64.9428 45.8312C65.2283 46.0333 65.4917 46.2419 65.7329 46.4526C67.57 48.0567 68.5726 50.1769 68.7541 52.3723C68.9378 54.542 68.3136 56.789 66.9038 58.6705C66.7112 58.9307 66.4855 59.1995 66.2265 59.4769C65.7197 60.0231 64.8476 60.0661 64.2855 59.5694C64.1515 59.4518 64.0426 59.3098 63.9652 59.1514C63.8878 58.993 63.8432 58.8212 63.8342 58.6461C63.8252 58.4709 63.8518 58.2957 63.9125 58.1306C63.9732 57.9654 64.0668 57.8135 64.1881 57.6836C64.3452 57.5115 64.509 57.3159 64.6706 57.0987C65.6842 55.744 66.1335 54.1334 66.0052 52.5809C65.8768 51.0499 65.1752 49.5684 63.8937 48.4438C63.7122 48.2804 63.5197 48.1298 63.3249 47.9922ZM53.5311 40.3135L53.5223 40.3028L53.5134 40.2899L53.4891 40.2512L53.4869 40.2469L53.4315 40.1458L53.4249 40.1351L53.4227 40.1329L53.4183 40.12L53.3983 40.0749L53.3917 40.0641L53.3851 40.0512V40.0469L53.3806 40.0362L53.3629 39.9932L53.3607 39.9867L53.3585 39.9781L53.3519 39.9545L53.3496 39.948L53.3452 39.9351L53.343 39.9243L53.3408 39.9179L53.3364 39.905L53.3342 39.8921L53.3319 39.8899L53.3275 39.8727L53.3253 39.862C52.6613 37.2537 51.371 36.0581 50.0319 35.7872C49.1533 35.6087 48.2193 35.813 47.4247 36.2624C46.6191 36.7183 45.9706 37.4171 45.6651 38.2235C45.2557 39.3008 45.4969 40.6253 46.8802 41.8682C47.4358 42.3692 47.469 43.2164 46.9555 43.7562C46.4398 44.298 45.5678 44.3303 45.0122 43.8293C43.9211 42.8487 43.2593 41.8059 42.9428 40.7694C42.0774 40.9629 41.2187 41.5199 40.5325 42.3348C39.7313 43.2788 39.1824 44.5582 39.1271 46.0204C39.1116 46.4075 39.1338 46.816 39.1935 47.2396C39.2643 47.7471 39.0297 48.2739 38.5539 48.5599C37.5158 49.1813 36.7434 49.8651 36.2056 50.5769C35.5504 51.4456 35.2494 52.3551 35.2384 53.2368C35.2273 54.1227 35.5106 55.0086 36.0197 55.815C36.449 56.4923 37.0378 57.1073 37.7438 57.6169C37.9905 57.7827 38.1748 58.0219 38.2691 58.2985C38.3633 58.5752 38.3623 58.8741 38.2661 59.15C37.9828 59.9629 37.9231 60.7542 38.0293 61.4896C38.182 62.5475 38.6845 63.513 39.375 64.2871C40.0678 65.0655 40.9442 65.6482 41.8428 65.9428C42.2235 66.0697 42.602 66.1406 42.9672 66.1514C43.5072 64.4161 44.9901 62.6787 47.8164 61.2745C48.4937 60.9391 49.3237 61.1993 49.669 61.8573C50.0142 62.5131 49.7464 63.3195 49.0692 63.6549C46.4553 64.9515 45.4726 66.4481 45.4748 67.7512C45.4748 68.764 46.0702 69.7187 46.94 70.3745C47.8231 71.0433 48.9651 71.3873 50.0319 71.1723C51.3732 70.9014 52.6657 69.7015 53.3275 67.0846C53.3696 66.9233 53.4382 66.775 53.5311 66.6459V40.3135ZM43.2947 46.73C43.5551 46.4811 43.9065 46.3428 44.2718 46.3457C44.637 46.3485 44.9862 46.4921 45.2424 46.7451C45.7758 47.2719 45.7669 48.1191 45.2269 48.6373C44.0096 49.7985 43.3744 51.3015 43.308 52.839C43.2394 54.4194 43.7706 56.045 44.8816 57.3847C45.3575 57.9588 45.2645 58.8017 44.6714 59.2662C44.3864 59.488 44.0226 59.5911 43.6596 59.5528C43.2966 59.5145 42.964 59.338 42.7348 59.0619C41.1965 57.2062 40.4617 54.9441 40.5569 52.7314C40.6498 50.536 41.5573 48.3879 43.2947 46.73ZM32.5338 76.9566C31.2921 75.4148 30.0261 73.8408 28.8022 72.0346C27.5583 70.1939 26.3875 68.1554 25.3915 65.76C24.4154 63.3904 23.6851 60.9993 23.2424 58.5845C22.7997 56.159 22.6382 53.6948 22.7997 51.1918V51.1854C22.9635 48.6997 23.446 46.1817 24.2826 43.6379C25.1126 41.1049 26.2834 38.5675 27.8239 36.0345L27.95 35.8474C29.9199 32.9768 32.2217 30.5943 34.7492 28.6741C37.363 26.6869 40.2998 25.1375 43.4386 24.0896L43.6068 24.0423C46.0237 23.2424 48.5026 22.7457 50.9814 22.535C53.6042 22.3114 56.2557 22.3995 58.8673 22.7737C61.4237 23.1392 63.9358 23.7822 66.335 24.6745C68.7275 25.5647 71.0271 26.7173 73.1673 28.1042C75.9406 29.904 78.4372 32.1081 80.5154 34.6648C82.5007 37.1096 84.101 39.877 85.1832 42.9197H85.1921C85.7764 44.5711 86.2523 46.3322 86.5688 48.1943C86.8958 50.1016 87.0336 52.035 86.9804 53.9679C86.9251 56.0429 86.6418 58.1867 86.0907 60.3779C85.5728 62.4228 84.8158 64.5215 83.7822 66.6567C81.6663 71.0411 78.0454 75.3955 74.4975 79.6595C72.6561 81.8764 70.8301 84.0719 69.283 86.1963C68.7718 86.9038 67.8776 87.1962 67.0609 86.9962C62.1939 86.6329 46.0171 88.895 40.0346 89.4347C39.547 89.4777 39.0593 89.3529 38.6568 89.0821C38.2542 88.8113 37.9624 88.4117 37.8323 87.9531C37.2281 85.8308 36.4291 83.7063 35.4885 81.7625C34.612 79.9498 33.6116 78.2962 32.5338 76.9566ZM32.2925 69.8047C33.4124 71.4561 34.6297 72.9721 35.8271 74.4579C37.0997 76.0384 38.2661 77.9607 39.2732 80.0422C40.0744 81.6979 40.7782 83.459 41.3625 85.2373L66.5209 82.9645C67.9706 81.0399 69.5951 79.0853 71.2374 77.1135C74.6392 73.0237 78.1096 68.85 79.9975 64.9386C80.9072 63.0593 81.5734 61.2143 82.0249 59.421C82.5096 57.5094 82.7531 55.6558 82.8018 53.8732C82.8482 52.1358 82.7154 50.4586 82.441 48.8459C82.1688 47.259 81.7504 45.7194 81.2259 44.24L81.2347 44.2378C80.3096 41.6403 78.9396 39.2728 77.2376 37.1784C75.4426 34.9701 73.267 33.0563 70.8412 31.478C68.9887 30.2782 66.9702 29.2697 64.8432 28.4784C62.7229 27.6892 60.5074 27.1215 58.2609 26.8012C55.9768 26.4743 53.6507 26.3991 51.3422 26.5947C49.1599 26.7797 47.0152 27.2033 44.9635 27.8806L44.7997 27.9408C42.1505 28.8267 39.6229 30.1276 37.3211 31.8758C35.1543 33.5208 33.1712 35.5743 31.4581 38.0558L31.4293 38.1052C30.035 40.3974 28.9881 42.6509 28.2643 44.8636C27.5406 47.0654 27.1223 49.2587 26.9784 51.4391C26.839 53.6023 26.9828 55.7505 27.3724 57.8835C27.7663 60.0295 28.4104 62.1519 29.2758 64.2484C30.1611 66.3793 31.1969 68.1834 32.2925 69.8047ZM67.072 86.9919C67.0897 86.9898 67.0786 86.9919 67.072 86.9919V86.9919ZM56.9905 3.32004C57.0746 2.32231 57.5593 1.45789 58.283 0.860114C58.9891 0.273086 59.9342 -0.0537571 60.9346 0.00860114V0C61.0209 0.00430057 61.105 0.0172023 61.1891 0.0322543C62.1187 0.154821 62.9354 0.612831 63.5042 1.25792C64.1106 1.94386 64.4448 2.85343 64.3806 3.83396H64.3917C64.3873 3.89847 64.3828 3.96298 64.3718 4.01673L63.7388 11.6804H63.7476C63.7454 11.7621 63.7299 11.8438 63.7166 11.9276C63.5883 12.8394 63.1191 13.6242 62.4529 14.1768C61.7162 14.784 60.7654 15.0894 59.8014 15.0283V15.0369C59.7172 15.0326 59.6331 15.0197 59.549 15.0068C58.6084 14.8821 57.8005 14.4263 57.2317 13.779C56.6067 13.0633 56.2925 12.1396 56.3553 11.203H56.3464C56.3508 11.1385 56.3531 11.074 56.3663 11.0202L56.9905 3.32004ZM15.4937 14.5897C14.8144 13.9002 14.4416 12.9787 14.4557 12.0244C14.4634 11.5523 14.5669 11.0864 14.7602 10.6532C14.9535 10.22 15.2329 9.82813 15.5822 9.49996C16.2914 8.83916 17.2402 8.47678 18.2227 8.49148C19.1678 8.50438 20.1128 8.87638 20.8211 9.58597L26.445 15.2649C27.1511 15.9831 27.4963 16.912 27.483 17.8302C27.4676 18.7591 27.0847 19.6665 26.3565 20.3546C25.6461 21.0149 24.6969 21.3772 23.7138 21.3631C22.7599 21.348 21.8237 20.976 21.1177 20.2664L15.4937 14.5897ZM3.56856 53.6389C2.56816 53.6045 1.67399 53.1787 1.02993 52.5293C0.35086 51.836 -0.0190065 50.9102 0.000752869 49.9533C0.0184591 48.962 0.458902 48.0653 1.14723 47.431C1.83556 46.7967 2.76514 46.4139 3.79653 46.4419L11.8971 46.6074C12.9197 46.6246 13.8404 47.0504 14.4933 47.7191C15.1484 48.39 15.5402 49.2931 15.5136 50.293L15.5092 50.3489H15.5181L15.5026 50.478C15.4317 51.4026 15.0068 52.2154 14.3672 52.8175C13.6788 53.4496 12.7492 53.8238 11.7179 53.8066L11.6625 53.8023L11.6603 53.813L11.5762 53.8087L3.56856 53.6389ZM106.15 47.9342L106.271 47.932C107.239 47.9277 108.117 48.2782 108.783 48.8652C109.487 49.4824 109.939 50.3704 109.996 51.3574L109.994 51.394C110.005 51.394 109.999 51.495 109.999 51.5122C110.001 52.4519 109.64 53.3056 109.036 53.955C108.401 54.6366 107.486 55.0753 106.471 55.1312L98.3766 55.5268C97.3519 55.5741 96.4068 55.2107 95.7118 54.5957C95.008 53.9786 94.5476 53.0905 94.4989 52.1036C94.4535 51.151 94.799 50.2199 95.4595 49.5146C96.0947 48.833 97.0088 48.3836 98.0247 48.3384C100.729 48.1965 103.445 48.0374 106.15 47.9342ZM91.978 15.796C92.5999 15.0025 93.4786 14.5338 94.4126 14.3983C95.3488 14.2757 96.3293 14.4929 97.1571 15.0886L97.1659 15.0972C97.5554 15.3794 97.8831 15.734 98.1301 16.1405C98.3771 16.5469 98.5384 16.997 98.6046 17.4646C98.7329 18.372 98.5072 19.3246 97.8941 20.1288L93.0249 26.427C92.4118 27.2205 91.5243 27.6978 90.5792 27.8311C89.6452 27.9559 88.6647 27.7387 87.8348 27.1431C87.0181 26.5474 86.5267 25.6744 86.3895 24.767C86.2611 23.8596 86.4846 22.9048 87.0977 22.1006L91.978 15.796ZM69.4136 90.8065L69.3561 92.2666L69.3627 92.7741C69.3915 93.7309 69.3494 94.6964 69.2366 95.6468L68.6677 97.7262L40.6321 100.264L40.2094 99.1583L39.3639 94.7803L39.4126 93.5288L69.4136 90.8065Z" fill="white"/>
</svg>
