<svg width="90" height="90" viewBox="0 0 90 90" fill="none" xmlns="http://www.w3.org/2000/svg">
<path fill-rule="evenodd" clip-rule="evenodd" d="M81.5625 0H8.43751C3.79688 0 0 3.79688 0 8.4375V81.5625C0 86.2031 3.79688 90 8.43751 90H81.5625C86.2031 90 90 86.2031 90 81.5625V8.4375C90 3.79688 86.2031 0 81.5625 0ZM31.6477 13.6896H58.3541C68.3829 13.6896 76.5831 21.7883 76.5831 31.6825V58.3175C76.5831 68.2132 68.3829 76.3104 58.3541 76.3104H31.6477C21.6206 76.3104 13.4187 68.2132 13.4187 58.3175V31.6825C13.4187 21.7882 21.6206 13.6896 31.6477 13.6896ZM44.8306 28.0932C54.5754 28.0932 62.4848 36.001 62.4848 45.7473C62.4848 55.4939 54.5754 63.3999 44.8308 63.3999C35.0826 63.3999 27.1764 55.4939 27.1764 45.7473C27.1764 36.001 35.0825 28.0932 44.8306 28.0932ZM44.8306 34.056C51.2835 34.056 56.5221 39.2913 56.5221 45.7474C56.5221 52.2018 51.2835 57.4387 44.8306 57.4387C38.3745 57.4387 33.1376 52.2018 33.1376 45.7474C33.1376 39.2913 38.3745 34.056 44.8306 34.056ZM61.9101 25.6466C63.493 25.6466 64.7753 26.9288 64.7753 28.5117C64.7753 30.0946 63.493 31.3785 61.9101 31.3785C60.3272 31.3785 59.0433 30.0946 59.0433 28.5117C59.0433 26.9288 60.3272 25.6466 61.9101 25.6466ZM33.8287 18.8052H56.1733C64.5627 18.8052 71.4241 25.6317 71.4241 33.9744V56.4306C71.4241 64.7734 64.5627 71.5998 56.1733 71.5998H33.8285C25.4408 71.5998 18.5777 64.7734 18.5777 56.4306V33.9746C18.5777 25.6316 25.4408 18.8052 33.8285 18.8052H33.8287Z" fill="white"/>
</svg>
